<mxfile host="app.diagrams.net" agent="Mozilla/5.0 (Windows NT 10.0; Win64; x64; rv:139.0) Gecko/20100101 Firefox/139.0" version="27.1.6" pages="2">
  <diagram name="Page-1" id="7meF5i3ERcGCWGk9cTKC">
    <mxGraphModel dx="1429" dy="856" grid="1" gridSize="10" guides="1" tooltips="1" connect="1" arrows="1" fold="1" page="1" pageScale="1" pageWidth="3300" pageHeight="4681" math="0" shadow="0">
      <root>
        <mxCell id="0" />
        <mxCell id="1" parent="0" />
        <mxCell id="yZvimFrY_nlzojKEufp5-3" style="edgeStyle=orthogonalEdgeStyle;rounded=0;orthogonalLoop=1;jettySize=auto;html=1;exitX=1;exitY=0.5;exitDx=0;exitDy=0;entryX=0;entryY=0.5;entryDx=0;entryDy=0;" parent="1" source="yZvimFrY_nlzojKEufp5-1" target="yZvimFrY_nlzojKEufp5-2" edge="1">
          <mxGeometry relative="1" as="geometry" />
        </mxCell>
        <mxCell id="yZvimFrY_nlzojKEufp5-1" value="data&#xa;Clinical Data +&#xa;CT Scan" style="rectangle;fillColor=#fff2cc;strokeColor=#d6b656;" parent="1" name="data" vertex="1">
          <mxGeometry x="340" y="230" width="100" height="50" as="geometry" />
        </mxCell>
        <mxCell id="yZvimFrY_nlzojKEufp5-5" style="edgeStyle=orthogonalEdgeStyle;rounded=0;orthogonalLoop=1;jettySize=auto;html=1;exitX=1;exitY=0.5;exitDx=0;exitDy=0;entryX=0.5;entryY=0;entryDx=0;entryDy=0;" parent="1" source="yZvimFrY_nlzojKEufp5-2" target="yZvimFrY_nlzojKEufp5-4" edge="1">
          <mxGeometry relative="1" as="geometry" />
        </mxCell>
        <mxCell id="yZvimFrY_nlzojKEufp5-2" value="transform" style="rounded=1;whiteSpace=wrap;html=1;arcSize=50;fillColor=#f8cecc;strokeColor=#b85450;" parent="1" name="transform" vertex="1">
          <mxGeometry x="520" y="230" width="100" height="50" as="geometry" />
        </mxCell>
        <mxCell id="yZvimFrY_nlzojKEufp5-7" style="edgeStyle=orthogonalEdgeStyle;rounded=0;orthogonalLoop=1;jettySize=auto;html=1;exitX=0.5;exitY=1;exitDx=0;exitDy=0;entryX=1;entryY=0.5;entryDx=0;entryDy=0;" parent="1" source="yZvimFrY_nlzojKEufp5-4" target="yZvimFrY_nlzojKEufp5-6" edge="1">
          <mxGeometry relative="1" as="geometry" />
        </mxCell>
        <mxCell id="yZvimFrY_nlzojKEufp5-4" value="data&#xa;Cleaned and&#xa;Normalized Data" style="rectangle;fillColor=#fff2cc;strokeColor=#d6b656;" parent="1" name="data" vertex="1">
          <mxGeometry x="650" y="330" width="100" height="50" as="geometry" />
        </mxCell>
        <mxCell id="yZvimFrY_nlzojKEufp5-6" value="infer:deduce" style="rounded=1;whiteSpace=wrap;html=1;arcSize=50;fillColor=#bac8d3;strokeColor=#23445d;" parent="1" name="infer:deduce" vertex="1">
          <mxGeometry x="520" y="430" width="100" height="50" as="geometry" />
        </mxCell>
        <mxCell id="yZvimFrY_nlzojKEufp5-12" style="edgeStyle=orthogonalEdgeStyle;rounded=0;orthogonalLoop=1;jettySize=auto;html=1;exitX=0.5;exitY=1;exitDx=0;exitDy=0;entryX=0.5;entryY=0;entryDx=0;entryDy=0;" parent="1" source="yZvimFrY_nlzojKEufp5-8" target="yZvimFrY_nlzojKEufp5-11" edge="1">
          <mxGeometry relative="1" as="geometry" />
        </mxCell>
        <mxCell id="yZvimFrY_nlzojKEufp5-8" value="data&#xa;Dataset w/&#xa;Reduced Features" style="rectangle;fillColor=#fff2cc;strokeColor=#d6b656;" parent="1" name="data" vertex="1">
          <mxGeometry x="390" y="530" width="100" height="50" as="geometry" />
        </mxCell>
        <mxCell id="yZvimFrY_nlzojKEufp5-10" value="&lt;div&gt;error&lt;/div&gt;&lt;div&gt;&amp;nbsp; --&lt;/div&gt;&lt;div&gt;|&lt;/div&gt;&lt;div&gt;v&lt;/div&gt;" style="text;html=1;align=center;verticalAlign=middle;whiteSpace=wrap;rounded=0;dashed=1;fillColor=#f5f5f5;fontColor=#333333;strokeColor=#666666;strokeWidth=2;" parent="1" name="text" vertex="1">
          <mxGeometry x="440" y="430" width="80" height="100" as="geometry" />
        </mxCell>
        <mxCell id="yZvimFrY_nlzojKEufp5-14" style="edgeStyle=orthogonalEdgeStyle;rounded=0;orthogonalLoop=1;jettySize=auto;html=1;exitX=0.5;exitY=1;exitDx=0;exitDy=0;entryX=0;entryY=0.5;entryDx=0;entryDy=0;" parent="1" source="yZvimFrY_nlzojKEufp5-11" target="yZvimFrY_nlzojKEufp5-13" edge="1">
          <mxGeometry relative="1" as="geometry" />
        </mxCell>
        <mxCell id="yZvimFrY_nlzojKEufp5-11" value="generate:train" style="rounded=1;whiteSpace=wrap;html=1;arcSize=50;fillColor=#e1d5e7;strokeColor=#9673a6;" parent="1" name="generate:train" vertex="1">
          <mxGeometry x="390" y="660" width="100" height="50" as="geometry" />
        </mxCell>
        <mxCell id="yZvimFrY_nlzojKEufp5-16" style="edgeStyle=orthogonalEdgeStyle;rounded=0;orthogonalLoop=1;jettySize=auto;html=1;exitX=1;exitY=0.5;exitDx=0;exitDy=0;entryX=0;entryY=0.5;entryDx=0;entryDy=0;" parent="1" source="yZvimFrY_nlzojKEufp5-13" target="yZvimFrY_nlzojKEufp5-15" edge="1">
          <mxGeometry relative="1" as="geometry" />
        </mxCell>
        <mxCell id="yZvimFrY_nlzojKEufp5-13" value="model:hybrid&#xa;ANFIS" style="shape=hexagon;perimeter=hexagonPerimeter2;fillColor=#b0e3e6;strokeColor=#0e8088;" parent="1" name="model" vertex="1">
          <mxGeometry x="510" y="760" width="120" height="50" as="geometry" />
        </mxCell>
        <mxCell id="yZvimFrY_nlzojKEufp5-25" style="edgeStyle=orthogonalEdgeStyle;rounded=0;orthogonalLoop=1;jettySize=auto;html=1;exitX=1;exitY=0.5;exitDx=0;exitDy=0;entryX=0;entryY=0.5;entryDx=0;entryDy=0;" parent="1" source="yZvimFrY_nlzojKEufp5-15" target="yZvimFrY_nlzojKEufp5-24" edge="1">
          <mxGeometry relative="1" as="geometry" />
        </mxCell>
        <mxCell id="yZvimFrY_nlzojKEufp5-15" value="infer:deduce" style="rounded=1;whiteSpace=wrap;html=1;arcSize=50;fillColor=#bac8d3;strokeColor=#23445d;" parent="1" name="infer:deduce" vertex="1">
          <mxGeometry x="700" y="760" width="100" height="50" as="geometry" />
        </mxCell>
        <mxCell id="yZvimFrY_nlzojKEufp5-23" style="edgeStyle=orthogonalEdgeStyle;rounded=0;orthogonalLoop=1;jettySize=auto;html=1;" parent="1" source="yZvimFrY_nlzojKEufp5-22" target="yZvimFrY_nlzojKEufp5-15" edge="1">
          <mxGeometry relative="1" as="geometry" />
        </mxCell>
        <mxCell id="yZvimFrY_nlzojKEufp5-22" value="data&#xa;Patient Data +&#xa;CT Scan" style="rectangle;fillColor=#fff2cc;strokeColor=#d6b656;" parent="1" name="data" vertex="1">
          <mxGeometry x="700" y="890" width="100" height="50" as="geometry" />
        </mxCell>
        <mxCell id="yZvimFrY_nlzojKEufp5-24" value="symbol&#xa;Predicted Infarction&#xa;Volume Growth" style="rectangle;fillColor=#dae8fc;strokeColor=#6c8ebf;" parent="1" name="symbol" vertex="1">
          <mxGeometry x="880" y="760" width="100" height="50" as="geometry" />
        </mxCell>
      </root>
    </mxGraphModel>
  </diagram>
  <diagram name="Copy of Page-1" id="T119TPBHAvKi4b6OVFGq">
    <mxGraphModel dx="1310" dy="785" grid="1" gridSize="10" guides="1" tooltips="1" connect="1" arrows="1" fold="1" page="1" pageScale="1" pageWidth="3300" pageHeight="4681" math="0" shadow="0">
      <root>
        <mxCell id="2eJRIjBPijTXAPjI3Z6r-0" />
        <mxCell id="2eJRIjBPijTXAPjI3Z6r-1" parent="2eJRIjBPijTXAPjI3Z6r-0" />
        <mxCell id="2eJRIjBPijTXAPjI3Z6r-2" style="edgeStyle=orthogonalEdgeStyle;rounded=0;orthogonalLoop=1;jettySize=auto;html=1;exitX=1;exitY=0.5;exitDx=0;exitDy=0;entryX=0;entryY=0.5;entryDx=0;entryDy=0;" edge="1" parent="2eJRIjBPijTXAPjI3Z6r-1" source="2eJRIjBPijTXAPjI3Z6r-3" target="2eJRIjBPijTXAPjI3Z6r-5">
          <mxGeometry relative="1" as="geometry" />
        </mxCell>
        <mxCell id="2eJRIjBPijTXAPjI3Z6r-3" value="data&#xa;Clinical Data +&#xa;CT Scan" style="rectangle;fillColor=#fff2cc;strokeColor=#d6b656;" name="data" vertex="1" parent="2eJRIjBPijTXAPjI3Z6r-1">
          <mxGeometry x="340" y="230" width="100" height="50" as="geometry" />
        </mxCell>
        <mxCell id="2eJRIjBPijTXAPjI3Z6r-4" style="edgeStyle=orthogonalEdgeStyle;rounded=0;orthogonalLoop=1;jettySize=auto;html=1;exitX=1;exitY=0.5;exitDx=0;exitDy=0;entryX=0.5;entryY=0;entryDx=0;entryDy=0;" edge="1" parent="2eJRIjBPijTXAPjI3Z6r-1" source="2eJRIjBPijTXAPjI3Z6r-5" target="2eJRIjBPijTXAPjI3Z6r-7">
          <mxGeometry relative="1" as="geometry" />
        </mxCell>
        <mxCell id="2eJRIjBPijTXAPjI3Z6r-5" value="transform" style="rounded=1;whiteSpace=wrap;html=1;arcSize=50;fillColor=#f8cecc;strokeColor=#b85450;" name="transform" vertex="1" parent="2eJRIjBPijTXAPjI3Z6r-1">
          <mxGeometry x="520" y="230" width="100" height="50" as="geometry" />
        </mxCell>
        <mxCell id="2eJRIjBPijTXAPjI3Z6r-6" style="edgeStyle=orthogonalEdgeStyle;rounded=0;orthogonalLoop=1;jettySize=auto;html=1;exitX=0.5;exitY=1;exitDx=0;exitDy=0;entryX=1;entryY=0.5;entryDx=0;entryDy=0;" edge="1" parent="2eJRIjBPijTXAPjI3Z6r-1" source="2eJRIjBPijTXAPjI3Z6r-7" target="2eJRIjBPijTXAPjI3Z6r-8">
          <mxGeometry relative="1" as="geometry" />
        </mxCell>
        <mxCell id="2eJRIjBPijTXAPjI3Z6r-7" value="data&#xa;Cleaned and&#xa;Normalized Data" style="rectangle;fillColor=#fff2cc;strokeColor=#d6b656;" name="data" vertex="1" parent="2eJRIjBPijTXAPjI3Z6r-1">
          <mxGeometry x="650" y="330" width="100" height="50" as="geometry" />
        </mxCell>
        <mxCell id="I4iLYutumM8hgGLQJ2nx-0" style="edgeStyle=orthogonalEdgeStyle;rounded=0;orthogonalLoop=1;jettySize=auto;html=1;exitX=0;exitY=0.5;exitDx=0;exitDy=0;entryX=0.5;entryY=0;entryDx=0;entryDy=0;" edge="1" parent="2eJRIjBPijTXAPjI3Z6r-1" source="2eJRIjBPijTXAPjI3Z6r-8" target="2eJRIjBPijTXAPjI3Z6r-10">
          <mxGeometry relative="1" as="geometry" />
        </mxCell>
        <mxCell id="2eJRIjBPijTXAPjI3Z6r-8" value="infer:deduce" style="rounded=1;whiteSpace=wrap;html=1;arcSize=50;fillColor=#bac8d3;strokeColor=#23445d;" name="infer:deduce" vertex="1" parent="2eJRIjBPijTXAPjI3Z6r-1">
          <mxGeometry x="520" y="430" width="100" height="50" as="geometry" />
        </mxCell>
        <mxCell id="2eJRIjBPijTXAPjI3Z6r-9" style="edgeStyle=orthogonalEdgeStyle;rounded=0;orthogonalLoop=1;jettySize=auto;html=1;exitX=0.5;exitY=1;exitDx=0;exitDy=0;entryX=0.5;entryY=0;entryDx=0;entryDy=0;" edge="1" parent="2eJRIjBPijTXAPjI3Z6r-1" source="2eJRIjBPijTXAPjI3Z6r-10" target="2eJRIjBPijTXAPjI3Z6r-13">
          <mxGeometry relative="1" as="geometry" />
        </mxCell>
        <mxCell id="2eJRIjBPijTXAPjI3Z6r-10" value="data&#xa;Dataset w/&#xa;Reduced Features" style="rectangle;fillColor=#fff2cc;strokeColor=#d6b656;" name="data" vertex="1" parent="2eJRIjBPijTXAPjI3Z6r-1">
          <mxGeometry x="390" y="530" width="100" height="50" as="geometry" />
        </mxCell>
        <mxCell id="2eJRIjBPijTXAPjI3Z6r-12" style="edgeStyle=orthogonalEdgeStyle;rounded=0;orthogonalLoop=1;jettySize=auto;html=1;exitX=0.5;exitY=1;exitDx=0;exitDy=0;entryX=0;entryY=0.5;entryDx=0;entryDy=0;" edge="1" parent="2eJRIjBPijTXAPjI3Z6r-1" source="2eJRIjBPijTXAPjI3Z6r-13" target="2eJRIjBPijTXAPjI3Z6r-15">
          <mxGeometry relative="1" as="geometry" />
        </mxCell>
        <mxCell id="2eJRIjBPijTXAPjI3Z6r-13" value="generate:train" style="rounded=1;whiteSpace=wrap;html=1;arcSize=50;fillColor=#e1d5e7;strokeColor=#9673a6;" name="generate:train" vertex="1" parent="2eJRIjBPijTXAPjI3Z6r-1">
          <mxGeometry x="390" y="660" width="100" height="50" as="geometry" />
        </mxCell>
        <mxCell id="2eJRIjBPijTXAPjI3Z6r-14" style="edgeStyle=orthogonalEdgeStyle;rounded=0;orthogonalLoop=1;jettySize=auto;html=1;exitX=1;exitY=0.5;exitDx=0;exitDy=0;entryX=0;entryY=0.5;entryDx=0;entryDy=0;" edge="1" parent="2eJRIjBPijTXAPjI3Z6r-1" source="2eJRIjBPijTXAPjI3Z6r-15" target="2eJRIjBPijTXAPjI3Z6r-17">
          <mxGeometry relative="1" as="geometry" />
        </mxCell>
        <mxCell id="2eJRIjBPijTXAPjI3Z6r-15" value="model:hybrid&#xa;ANFIS" style="shape=hexagon;perimeter=hexagonPerimeter2;fillColor=#b0e3e6;strokeColor=#0e8088;" name="model" vertex="1" parent="2eJRIjBPijTXAPjI3Z6r-1">
          <mxGeometry x="510" y="760" width="120" height="50" as="geometry" />
        </mxCell>
        <mxCell id="2eJRIjBPijTXAPjI3Z6r-16" style="edgeStyle=orthogonalEdgeStyle;rounded=0;orthogonalLoop=1;jettySize=auto;html=1;exitX=1;exitY=0.5;exitDx=0;exitDy=0;entryX=0;entryY=0.5;entryDx=0;entryDy=0;" edge="1" parent="2eJRIjBPijTXAPjI3Z6r-1" source="2eJRIjBPijTXAPjI3Z6r-17" target="2eJRIjBPijTXAPjI3Z6r-20">
          <mxGeometry relative="1" as="geometry" />
        </mxCell>
        <mxCell id="2eJRIjBPijTXAPjI3Z6r-17" value="infer:deduce" style="rounded=1;whiteSpace=wrap;html=1;arcSize=50;fillColor=#bac8d3;strokeColor=#23445d;" name="infer:deduce" vertex="1" parent="2eJRIjBPijTXAPjI3Z6r-1">
          <mxGeometry x="700" y="760" width="100" height="50" as="geometry" />
        </mxCell>
        <mxCell id="2eJRIjBPijTXAPjI3Z6r-18" style="edgeStyle=orthogonalEdgeStyle;rounded=0;orthogonalLoop=1;jettySize=auto;html=1;" edge="1" parent="2eJRIjBPijTXAPjI3Z6r-1" source="2eJRIjBPijTXAPjI3Z6r-19" target="2eJRIjBPijTXAPjI3Z6r-17">
          <mxGeometry relative="1" as="geometry" />
        </mxCell>
        <mxCell id="2eJRIjBPijTXAPjI3Z6r-19" value="data&#xa;Patient Data +&#xa;CT Scan" style="rectangle;fillColor=#fff2cc;strokeColor=#d6b656;" name="data" vertex="1" parent="2eJRIjBPijTXAPjI3Z6r-1">
          <mxGeometry x="700" y="890" width="100" height="50" as="geometry" />
        </mxCell>
        <mxCell id="2eJRIjBPijTXAPjI3Z6r-20" value="symbol&#xa;Predicted Infarction&#xa;Volume Growth" style="rectangle;fillColor=#dae8fc;strokeColor=#6c8ebf;" name="symbol" vertex="1" parent="2eJRIjBPijTXAPjI3Z6r-1">
          <mxGeometry x="880" y="760" width="100" height="50" as="geometry" />
        </mxCell>
      </root>
    </mxGraphModel>
  </diagram>
</mxfile>
